<svg width="20" height="25" viewBox="0 0 20 25" fill="none" xmlns="http://www.w3.org/2000/svg">
<path d="M9.76148 2.68116C12.5298 6.19945 14.0076 10.5381 13.954 14.9901V16.0528L14.8674 16.6092C16.0475 17.3244 16.9276 18.4336 17.3474 19.7348C16.9789 19.4632 16.5933 19.2147 16.193 18.9909L13.7574 17.6219L13.3198 20.385C13.2818 20.6291 13.231 20.8712 13.1675 21.1101H6.34275C6.24126 20.7976 6.15881 20.485 6.08269 20.1599L5.53088 17.6594L3.28554 18.9097C2.91043 19.1197 2.54826 19.3514 2.20094 19.6036C2.62887 18.3174 3.49062 17.2144 4.64289 16.4779L5.51185 15.9215V14.9338C5.52752 10.4999 7.02309 6.19425 9.76783 2.68116H9.76148ZM9.76783 0.0805969C9.62548 0.080943 9.48806 0.13201 9.38092 0.224378L9.32383 0.274389C5.66633 4.30605 3.63537 9.51937 3.61537 14.9276C2.0633 15.92 0.914429 17.4185 0.369523 19.161C-0.175383 20.9036 -0.0816721 22.7795 0.634279 24.4609C1.3885 22.8192 2.6493 21.454 4.23696 20.56C4.39618 21.2398 4.60823 21.9065 4.87123 22.5542C4.90458 22.6787 4.97851 22.789 5.08165 22.868C5.18479 22.9471 5.31142 22.9906 5.44208 22.9918H14.2458C14.4234 22.9918 14.601 22.823 14.6898 22.5605C14.9465 21.9447 15.1254 21.3001 15.2226 20.6413C16.8133 21.5315 18.0751 22.8978 18.8253 24.5421C19.5844 22.869 19.7019 20.9813 19.1561 19.2293C18.6102 17.4772 17.4379 15.9799 15.8569 15.0151C15.9196 9.57499 13.8994 4.31151 10.1991 0.274389C10.144 0.21367 10.0766 0.165041 10.0012 0.131656C9.92581 0.0982718 9.84414 0.080876 9.76148 0.0805969L9.76783 0.0805969Z" fill="#4EA8DE"/>
</svg>
